HIERARCHY
ROOT SimulationBone
{
	OFFSET 0.000000 0.000000 0.000000
	CHANNELS 6 Xposition Yposition Zposition Zrotation Yrotation Xrotation 
	JOINT Hips
	{
		OFFSET 0.000000 0.000000 0.000000
		CHANNELS 6 Xposition Yposition Zposition Zrotation Yrotation Xrotation 
		JOINT LeftUpLeg
		{
			OFFSET 0.103460 1.857825 10.548519
			CHANNELS 3 Zrotation Yrotation Xrotation
			JOINT LeftLeg
			{
				OFFSET 43.500008 -0.000019 0.000016
				CHANNELS 3 Zrotation Yrotation Xrotation
				JOINT LeftFoot
				{
					OFFSET 42.372192 0.000004 0.000011
					CHANNELS 3 Zrotation Yrotation Xrotation
					JOINT LeftToe
					{
						OFFSET 17.300001 0.000001 -0.000016
						CHANNELS 3 Zrotation Yrotation Xrotation
						End Site
						{
							OFFSET 0.000000 0.000000 0.000000
						}
					}
				}
			}
		}
		JOINT RightUpLeg
		{
			OFFSET 0.103460 1.857824 -10.548484
			CHANNELS 3 Zrotation Yrotation Xrotation
			JOINT RightLeg
			{
				OFFSET 43.500046 -0.000008 0.000031
				CHANNELS 3 Zrotation Yrotation Xrotation
				JOINT RightFoot
				{
					OFFSET 42.372261 0.000000 0.000010
					CHANNELS 3 Zrotation Yrotation Xrotation
					JOINT RightToe
					{
						OFFSET 17.299986 -0.000007 0.000010
						CHANNELS 3 Zrotation Yrotation Xrotation
						End Site
						{
							OFFSET 0.000000 0.000000 0.000000
						}
					}
				}
			}
		}
		JOINT Spine
		{
			OFFSET 6.901969 -2.603749 -0.000000
			CHANNELS 3 Zrotation Yrotation Xrotation
			JOINT Spine1
			{
				OFFSET 12.588099 0.000014 -0.000003
				CHANNELS 3 Zrotation Yrotation Xrotation
				JOINT Spine2
				{
					OFFSET 12.343207 0.000019 0.000011
					CHANNELS 3 Zrotation Yrotation Xrotation
					JOINT Neck
					{
						OFFSET 25.832890 -0.000025 -0.000002
						CHANNELS 3 Zrotation Yrotation Xrotation
						JOINT Head
						{
							OFFSET 11.766609 0.000013 -0.000004
							CHANNELS 3 Zrotation Yrotation Xrotation
							End Site
							{
								OFFSET 0.000000 0.000000 0.000000
							}
						}
					}
					JOINT LeftShoulder
					{
						OFFSET 19.745899 -1.480392 6.000105
						CHANNELS 3 Zrotation Yrotation Xrotation
						JOINT LeftArm
						{
							OFFSET 11.284097 -0.000017 -0.000023
							CHANNELS 3 Zrotation Yrotation Xrotation
							JOINT LeftForeArm
							{
								OFFSET 33.000065 -0.000020 0.000044
								CHANNELS 3 Zrotation Yrotation Xrotation
								JOINT LeftHand
								{
									OFFSET 25.200005 0.000023 0.000007
									CHANNELS 3 Zrotation Yrotation Xrotation
									End Site
									{
										OFFSET 0.000000 0.000000 0.000000
									}
								}
							}
						}
					}
					JOINT RightShoulder
					{
						OFFSET 19.746096 -1.480391 -6.000090
						CHANNELS 3 Zrotation Yrotation Xrotation
						JOINT RightArm
						{
							OFFSET 11.284126 -0.000026 -0.000012
							CHANNELS 3 Zrotation Yrotation Xrotation
							JOINT RightForeArm
							{
								OFFSET 33.000092 0.000010 0.000014
								CHANNELS 3 Zrotation Yrotation Xrotation
								JOINT RightHand
								{
									OFFSET 25.199760 0.000151 0.000418
									CHANNELS 3 Zrotation Yrotation Xrotation
									End Site
									{
										OFFSET 0.000000 0.000000 0.000000
									}
								}
							}
						}
					}
				}
			}
		}
	}
}
MOTION
Frames: 11
Frame Time: 0.016667
-106.380060 0.000000 -543.896448 0.000000 -11.363339 0.000000 -5.727954 91.179733 1.287448 83.023657 1.763962 179.420848 170.194012 3.006390 167.263533 -23.609751 5.680953 -4.897162 93.642787 2.680106 -4.617082 21.454560 0.003109 0.000017 142.218717 8.041594 -169.088614 -40.819460 -2.140520 7.105742 74.178893 -5.075250 -0.157696 21.454551 -0.003092 0.000001 7.753170 -0.538503 -1.464767 5.506718 -1.007048 -2.953450 5.189026 -1.024993 -2.947327 5.634022 7.517053 5.542707 -30.688886 6.095213 4.147799 167.555904 -80.584737 11.121099 -3.143071 57.273702 13.343759 -73.875468 -6.925111 2.129092 -8.309675 -7.792181 14.645881 -131.814735 83.235537 50.262515 42.001642 -62.868037 -53.389514 -105.347901 -0.164686 -2.974673 -8.438288 4.207959 -46.972108 
-105.832168 0.000000 -543.442774 0.000000 -11.645196 0.000000 -5.706696 91.064710 1.291268 83.067589 1.692199 179.596321 170.676793 2.888902 167.165335 -23.633362 5.704836 -4.883125 94.027237 2.634274 -5.022887 21.454558 0.003109 0.000017 142.413008 7.916125 -168.938480 -38.897031 -1.786804 6.626164 74.268255 -4.763405 -0.238116 21.454550 -0.003087 -0.000001 7.764853 -0.527364 -1.519708 5.530208 -0.981867 -3.062829 5.212549 -1.000471 -3.056860 5.504705 7.942993 5.581692 -30.794839 5.364080 4.638231 165.719110 -80.838174 12.973700 -4.658267 57.958651 11.084747 -74.356870 -6.956347 2.151833 -8.062279 -7.925859 12.875938 -132.316040 83.117556 49.763200 42.208799 -62.387379 -53.564977 -105.962413 -0.338032 -2.989890 -7.739218 3.818114 -46.272192 
-105.261261 0.000000 -542.956696 0.000000 -11.925622 0.000000 -5.705699 90.932617 1.216055 83.044754 1.477623 179.759193 171.167778 3.004591 167.268587 -23.525422 5.718347 -5.005217 94.371664 2.682343 -5.426885 21.454557 0.003109 0.000017 142.638910 8.053498 -168.839476 -36.880114 -1.152281 6.074841 74.215147 -4.441120 -0.376712 21.454551 -0.003090 -0.000002 7.752547 -0.544385 -1.571459 5.506491 -1.013759 -3.166999 5.188861 -1.032991 -3.160835 5.328377 7.972241 5.639278 -30.789594 5.090395 4.853742 164.295923 -80.927182 14.412112 -6.415163 58.356520 8.906681 -74.613669 -7.061288 2.169458 -7.936032 -8.076636 11.706880 -132.072424 83.037019 50.013435 42.515108 -62.041810 -53.823009 -106.312699 -0.446729 -2.997342 -7.407945 3.726056 -45.752455 
-104.668387 0.000000 -542.440822 0.000000 -12.204723 0.000000 -5.713135 90.785200 1.094393 82.981043 1.156599 179.911131 171.681197 3.263442 167.497165 -23.329679 5.700851 -5.206240 94.689770 2.786780 -5.824369 21.454556 0.003108 0.000017 142.936513 8.313976 -168.482713 -34.771613 -0.557899 5.499026 74.088959 -4.067573 -0.421519 21.454552 -0.003096 -0.000002 7.721356 -0.584932 -1.618077 5.445700 -1.093473 -3.261860 5.128092 -1.113276 -3.255212 5.150084 7.796591 5.716205 -30.705100 5.066962 4.928550 163.114361 -80.916610 15.609376 -8.293989 58.538254 6.849970 -74.615118 -7.211484 2.179723 -7.889192 -8.253755 11.077884 -131.243689 82.959705 50.854020 42.871607 -61.800858 -54.146583 -106.431919 -0.495207 -2.999067 -7.351855 3.803723 -45.520933 
-104.054593 0.000000 -541.897760 0.000000 -12.482602 0.000000 -5.716537 90.624207 0.958623 82.902942 0.765056 -179.946215 172.231266 3.576600 167.773639 -23.089687 5.631572 -5.429211 94.995786 2.910210 -6.211086 21.454557 0.003108 0.000017 143.347829 8.553603 -167.559594 -32.566867 -0.327033 4.922296 73.961105 -3.601022 -0.220155 21.454553 -0.003099 -0.000002 7.676370 -0.644358 -1.657601 5.357903 -1.211700 -3.343254 5.040309 -1.231992 -3.335890 5.014967 7.607734 5.812106 -30.577298 5.087211 4.997493 161.946037 -80.867411 16.794935 -10.190168 58.579354 4.941119 -74.330325 -7.378416 2.179518 -7.880198 -8.462679 10.928063 -129.989940 82.849789 52.125456 43.230669 -61.634280 -54.520064 -106.353216 -0.487983 -2.996248 -7.482589 3.918642 -45.689487 
-103.420927 0.000000 -541.330119 0.000000 -12.759368 0.000000 -5.707503 90.453263 0.836191 82.829979 0.350716 -179.814974 172.817500 3.852928 168.003227 -22.851930 5.508065 -5.611938 95.306498 3.011786 -6.580943 21.454557 0.003108 0.000017 143.897389 8.633094 -165.870686 -30.290240 -0.685153 4.326101 73.868968 -3.020112 0.271094 21.454551 -0.003096 -0.000001 7.621350 -0.714713 -1.687860 5.250370 -1.352554 -3.406429 4.932780 -1.373224 -3.398215 4.967778 7.553976 5.928185 -30.439200 4.996700 5.163536 160.578785 -80.818117 18.182215 -11.994531 58.541542 3.208571 -73.753197 -7.540813 2.166872 -7.854699 -8.663118 11.185108 -128.621953 82.685621 53.515550 43.551079 -61.510612 -54.910563 -106.117936 -0.429006 -2.990056 -7.703508 3.935767 -46.290718 
-102.768435 0.000000 -540.740504 0.000000 -13.035129 0.000000 -5.695956 90.283508 0.735892 82.752627 0.009906 -179.711431 173.384325 3.989396 168.025563 -22.675367 5.403022 -5.670380 95.647427 3.036299 -6.919517 21.454558 0.003109 0.000017 144.537730 8.458495 -163.650445 -28.107564 -1.459929 3.618046 73.699304 -2.387092 0.658278 21.454550 -0.003091 -0.000000 7.554792 -0.774892 -1.705845 5.119367 -1.474027 -3.444341 4.801775 -1.494924 -3.435395 5.050564 7.610554 6.076535 -30.308656 4.850472 5.404150 158.982895 -80.728745 19.803023 -13.516884 58.422950 1.749131 -72.977189 -7.706904 2.145731 -7.704334 -8.638894 11.730873 -127.941526 82.505944 54.212997 43.816911 -61.392532 -55.215746 -105.800299 -0.319785 -2.983725 -7.877156 3.725624 -47.037934 
-102.098165 0.000000 -540.131526 0.000000 -13.309996 0.000000 -5.693318 90.128219 0.657460 82.659943 -0.188294 -179.641940 173.887808 3.936794 167.734271 -22.585790 5.395064 -5.552549 96.016426 2.948402 -7.216948 21.454557 0.003110 0.000017 145.196481 8.003941 -161.200757 -26.198615 -2.413330 2.726982 73.279678 -1.797464 0.454426 21.454550 -0.003088 0.000001 7.476173 -0.809388 -1.711334 4.963303 -1.545120 -3.455858 4.645704 -1.566085 -3.446484 5.259220 7.722394 6.257637 -30.185614 4.721648 5.672955 157.244015 -80.575432 21.571819 -14.616073 58.238750 0.649146 -72.104078 -7.904627 2.122502 -7.344673 -8.197713 12.442860 -128.443381 82.347798 53.715889 44.019398 -61.261863 -55.347861 -105.473744 -0.172099 -2.979752 -7.891120 3.222553 -47.698045 
-101.411165 0.000000 -539.505790 0.000000 -13.584079 0.000000 -5.698815 90.001709 0.582187 82.559413 -0.332984 -179.558755 174.385726 3.862594 167.312000 -22.462165 5.512456 -5.358660 96.290223 2.805939 -7.487661 21.454557 0.003111 0.000017 145.809662 7.446303 -158.647905 -24.650513 -3.449193 1.662343 72.384315 -1.402408 -0.754820 21.454551 -0.003088 0.000001 7.394232 -0.838268 -1.715926 4.800407 -1.605147 -3.465205 4.482800 -1.626168 -3.455469 5.407907 7.887929 6.412218 -30.016263 4.544793 5.951318 155.561995 -80.478159 23.280075 -15.436747 58.114369 -0.123473 -71.169190 -8.210951 2.105812 -6.860981 -7.408814 13.224611 -129.261706 82.167885 52.900276 44.154845 -61.181404 -55.349003 -105.175705 -0.041443 -2.975685 -7.781693 2.592283 -48.571458 
-100.708482 0.000000 -538.865905 0.000000 -13.857492 0.000000 -5.708731 89.919204 0.503507 82.469083 -0.483896 -179.422588 174.927094 3.875139 166.989521 -22.238703 5.737936 -5.214317 96.355120 2.683015 -7.762637 21.454558 0.003110 0.000018 146.350221 6.928918 -156.256976 -23.533589 -4.460601 0.572220 70.994904 -1.342133 -2.941103 21.454551 -0.003092 -0.000000 7.322662 -0.872175 -1.729477 4.658542 -1.674558 -3.492735 4.340930 -1.695744 -3.482580 5.302953 8.091012 6.489635 -29.749045 4.261144 6.224107 154.161032 -80.533213 24.695105 -16.149125 58.155391 -0.639430 -70.201235 -8.672937 2.099227 -6.365292 -6.434165 14.011067 -129.515991 81.929233 52.657489 44.170979 -61.219900 -55.235870 -104.929322 0.021672 -2.969233 -7.599181 2.016538 -49.925631 
-99.991164 0.000000 -538.214479 0.000000 -14.130349 0.000000 -5.718048 89.898560 0.482124 82.438134 -0.425601 -179.283375 175.433067 3.639011 166.888432 -22.219089 5.924228 -5.197431 96.258845 2.628926 -8.119994 21.454560 0.003108 0.000018 146.868819 6.251299 -155.054706 -22.948536 -5.144064 0.073497 69.953956 -1.495614 -4.385352 21.454553 -0.003094 -0.000001 7.285653 -0.848344 -1.743326 4.583952 -1.627518 -3.518948 4.266358 -1.648863 -3.509076 4.902583 8.198875 6.537528 -29.391498 3.979102 6.466059 153.644051 -80.590017 25.215090 -16.707181 58.298641 -0.973157 -69.270412 -9.167978 2.094292 -5.896629 -5.558307 14.840370 -129.371768 81.683454 52.817717 43.813978 -61.389383 -54.791028 -104.736592 0.030510 -2.961404 -7.315236 1.511898 -51.366023 
